<svg width="2085.09" height="552.188" xmlns="http://www.w3.org/2000/svg">

 <g>
  <title>Layer 1</title>
  <path fill="#ffffff" stroke="#ffffff" fill-rule="evenodd" d="m2080.00004,-2.06201l0,80l-1753,0c-51.816,0 -139.508,-8.89 -178,7c-30.562,12.62 -58,56.56 -31,93c23.078,31.14 70.96,41.72 109,58c65.916,28.21 107.088,62.12 120,145c5.6,35.97 -11.915,70.4 -25,90c-42.221,63.25 -146.928,95.35 -252,69c-25.313,-6.35 -47.108,-17.45 -69,-25q10.5,-40.5 21,-81c54.583,29.03 183.222,61.69 219,-9c7.548,-14.91 9.62,-41.75 2,-59c-15.62,-35.35 -60.012,-47.48 -97,-62c-68.094,-26.73 -164.835,-83.71 -132,-192c6.4,-21.11 17.012,-36.87 29,-52c17.044,-21.51 41.421,-37.2 69,-48c52.066,-20.382 134.93,-14 206,-14l1762,0zm-1218,380l0,162l-70,0l0,-388c122.88,-7.21 242.53,-30.71 262,94c2.51,16.07 -0.91,34.64 -6,47c-8.79,21.33 -26.13,39.62 -45,51c-6.35,3.83 -16.34,4.49 -20,11c57.17,12.72 64.38,131.91 86,185l-73,0c-12.7,-42.5 -29.73,-142.05 -66,-157c-17.03,-7.02 -44.41,-5.36 -68,-5zm888,-226q45.495,-4.005 91,-8q28.995,1.005 58,2c85.84,13.44 141.72,35.71 171,104c6.83,15.93 10.77,34.94 14,54c5.36,31.65 -0.34,69.74 -7,94c-28.39,103.41 -106.14,145 -238,145c-30.36,0 -63.41,2.03 -89,-5l0,-386zm-1232,-5l91,0q63.493,196.485 127,393q-38.5,-0.495 -77,-1q-17.5,-55.5 -35,-111q-62.994,0.495 -126,1q-16.5,55.5 -33,111l-73,0q62.994,-196.485 126,-393zm606,0l226,0l0,59l-155,0l0,109l144,0l0,58l-144,0l0,167l-71,0l0,-393zm352,0l91,0l127,393q-38.49,-0.495 -77,-1q-17.505,-55.5 -35,-111q-63,0.495 -126,1l-33,111l-73,0q63,-196.485 126,-393zm-614,179c61.24,1.2 109.76,-1.75 121,-50c17.59,-75.54 -59.07,-82.23 -121,-75l0,125zm959,-123l0,283c103.99,4.57 164.11,-18.94 184,-104c5.33,-22.81 7.85,-58.79 2,-84c-4.25,-18.33 -11.27,-36.64 -21,-50c-32.6,-44.74 -92.33,-50.77 -165,-45zm-1261,0c-20.362,57.75 -28.362,117.25 -50,172l102,0q-26,-85.995 -52,-172zm958,0c-20.36,57.75 -28.36,117.25 -50,172l102,0q-25.995,-85.995 -52,-172z" class="cls-1" data-name="Výplň barvou 1" id="Výplň_barvou_1"/>
 </g>
</svg>