<?xml version="1.0" encoding="UTF-8" standalone="no" ?>
<!DOCTYPE svg PUBLIC "-//W3C//DTD SVG 1.1//EN" "http://www.w3.org/Graphics/SVG/1.1/DTD/svg11.dtd">
<svg xmlns="http://www.w3.org/2000/svg" xmlns:xlink="http://www.w3.org/1999/xlink" version="1.1" width="500" height="500" viewBox="0 0 500 500" xml:space="preserve">
<desc>Created with Fabric.js 4.6.0</desc>
<defs>
</defs>
<g transform="matrix(1 0 0 1 1042.56 276.09)" id="UTBJrPaoWB8HUSzg5Nyu2"  >
<path style="stroke: none; stroke-width: 1; stroke-dasharray: none; stroke-linecap: butt; stroke-dashoffset: 0; stroke-linejoin: miter; stroke-miterlimit: 4; fill: rgb(255,255,255); fill-rule: evenodd; opacity: 1;" vector-effect="non-scaling-stroke"  transform=" translate(-1250.56, -1249.15)" d="M 2287 974 L 2287 1054 L 534 1054 C 482.18399999999997 1054 394.49199999999996 1045.11 356 1061 C 325.438 1073.62 298 1117.56 325 1154 C 348.078 1185.14 395.96 1195.72 434 1212 C 499.916 1240.21 541.088 1274.12 554 1357 C 559.6 1392.97 542.085 1427.4 529 1447 C 486.779 1510.25 382.072 1542.35 277 1516 C 251.687 1509.65 229.892 1498.55 208 1491 Q 218.5 1450.5 229 1410 C 283.58299999999997 1439.03 412.222 1471.69 448 1401 C 455.548 1386.09 457.62 1359.25 450 1342 C 434.38 1306.65 389.988 1294.52 353 1280 C 284.906 1253.27 188.165 1196.29 221 1088 C 227.4 1066.89 238.012 1051.13 250 1036 C 267.044 1014.49 291.421 998.8 319 988 C 371.06600000000003 967.618 453.93 974 525 974 L 2287 974 Z M 1069 1354 L 1069 1516 L 999 1516 L 999 1128 C 1121.88 1120.79 1241.53 1097.29 1261 1222 C 1263.51 1238.07 1260.09 1256.64 1255 1269 C 1246.21 1290.33 1228.87 1308.62 1210 1320 C 1203.65 1323.83 1193.66 1324.49 1190 1331 C 1247.17 1343.72 1254.38 1462.91 1276 1516 L 1203 1516 C 1190.3 1473.5 1173.27 1373.95 1137 1359 C 1119.97 1351.98 1092.59 1353.64 1069 1354 Z M 1957 1128 Q 2002.495 1123.995 2048 1120 Q 2076.995 1121.005 2106 1122 C 2191.84 1135.44 2247.72 1157.71 2277 1226 C 2283.83 1241.93 2287.77 1260.94 2291 1280 C 2296.36 1311.65 2290.66 1349.74 2284 1374 C 2255.61 1477.41 2177.86 1519 2046 1519 C 2015.64 1519 1982.59 1521.03 1957 1514 L 1957 1128 Z M 725 1123 L 816 1123 Q 879.493 1319.4850000000001 943 1516 Q 904.5 1515.505 866 1515 Q 848.5 1459.5 831 1404 Q 768.006 1404.495 705 1405 Q 688.5 1460.5 672 1516 L 599 1516 Q 661.994 1319.515 725 1123 Z M 1331 1123 L 1557 1123 L 1557 1182 L 1402 1182 L 1402 1291 L 1546 1291 L 1546 1349 L 1402 1349 L 1402 1516 L 1331 1516 L 1331 1123 Z M 1683 1123 L 1774 1123 L 1901 1516 Q 1862.51 1515.505 1824 1515 Q 1806.495 1459.5 1789 1404 Q 1726 1404.495 1663 1405 L 1630 1516 L 1557 1516 Q 1620 1319.515 1683 1123 Z M 1069 1302 C 1130.24 1303.2 1178.76 1300.25 1190 1252 C 1207.59 1176.46 1130.93 1169.77 1069 1177 L 1069 1302 Z M 2028 1179 L 2028 1462 C 2131.99 1466.57 2192.11 1443.06 2212 1358 C 2217.33 1335.19 2219.85 1299.21 2214 1274 C 2209.75 1255.67 2202.73 1237.36 2193 1224 C 2160.4 1179.26 2100.67 1173.23 2028 1179 Z M 767 1179 C 746.638 1236.75 738.638 1296.25 717 1351 L 819 1351 Q 793 1265.005 767 1179 Z M 1725 1179 C 1704.64 1236.75 1696.64 1296.25 1675 1351 L 1777 1351 Q 1751.005 1265.005 1725 1179 Z" stroke-linecap="round" />
</g>
</svg>